<svg width="52" height="55" viewBox="0 0 52 55" fill="none" xmlns="http://www.w3.org/2000/svg">
<rect x="18" y="13" width="19" height="23" fill="#122025"/>
<g filter="url(#filter0_d_1_40)">
<path d="M26 3.125C13.9199 3.125 4.125 12.9199 4.125 25C4.125 37.0801 13.9199 46.875 26 46.875C38.0801 46.875 47.875 37.0801 47.875 25C47.875 12.9199 38.0801 3.125 26 3.125ZM33.0361 25.3369L22.3721 33.0957C22.3136 33.1377 22.2447 33.1628 22.1729 33.1682C22.1011 33.1736 22.0292 33.1591 21.9651 33.1263C21.9011 33.0935 21.8472 33.0437 21.8096 32.9823C21.772 32.9209 21.7521 32.8503 21.752 32.7783V17.2705C21.7517 17.1984 21.7715 17.1276 21.809 17.066C21.8465 17.0044 21.9004 16.9544 21.9646 16.9215C22.0288 16.8886 22.1009 16.8742 22.1728 16.8798C22.2447 16.8854 22.3137 16.9107 22.3721 16.9531L33.0361 24.707C33.0865 24.7427 33.1276 24.7899 33.156 24.8447C33.1843 24.8995 33.1991 24.9603 33.1991 25.022C33.1991 25.0837 33.1843 25.1445 33.156 25.1993C33.1276 25.2541 33.0865 25.3013 33.0361 25.3369Z" fill="#FBFDFD"/>
</g>
<defs>
<filter id="filter0_d_1_40" x="0.125" y="3.125" width="51.75" height="51.75" filterUnits="userSpaceOnUse" color-interpolation-filters="sRGB">
<feFlood flood-opacity="0" result="BackgroundImageFix"/>
<feColorMatrix in="SourceAlpha" type="matrix" values="0 0 0 0 0 0 0 0 0 0 0 0 0 0 0 0 0 0 127 0" result="hardAlpha"/>
<feOffset dy="4"/>
<feGaussianBlur stdDeviation="2"/>
<feComposite in2="hardAlpha" operator="out"/>
<feColorMatrix type="matrix" values="0 0 0 0 0 0 0 0 0 0 0 0 0 0 0 0 0 0 0.15 0"/>
<feBlend mode="normal" in2="BackgroundImageFix" result="effect1_dropShadow_1_40"/>
<feBlend mode="normal" in="SourceGraphic" in2="effect1_dropShadow_1_40" result="shape"/>
</filter>
</defs>
</svg>
