<svg width="40" height="35" viewBox="0 0 40 35" fill="none" xmlns="http://www.w3.org/2000/svg">
<path d="M39.7484 16.9469L35.0609 6.00938C34.9406 5.72825 34.7404 5.48865 34.4851 5.32031C34.2299 5.15198 33.9308 5.06233 33.625 5.0625H28.9375V1.9375C28.9375 1.5231 28.7729 1.12567 28.4798 0.832646C28.1868 0.53962 27.7894 0.375 27.375 0.375H2.37497V3.5H25.8125V23.1187C25.1005 23.5322 24.4774 24.0825 23.9791 24.7379C23.4809 25.3933 23.1173 26.1409 22.9093 26.9375H13.0906C12.7103 25.4646 11.8059 24.181 10.5468 23.3272C9.28781 22.4734 7.76062 22.1081 6.25154 22.2998C4.74245 22.4915 3.35508 23.227 2.34947 24.3684C1.34386 25.5098 0.789062 26.9788 0.789062 28.5C0.789062 30.0212 1.34386 31.4902 2.34947 32.6316C3.35508 33.773 4.74245 34.5085 6.25154 34.7002C7.76062 34.8919 9.28781 34.5266 10.5468 33.6728C11.8059 32.819 12.7103 31.5354 13.0906 30.0625H22.9093C23.2492 31.4035 24.0266 32.5929 25.1184 33.4425C26.2102 34.292 27.5541 34.7533 28.9375 34.7533C30.3209 34.7533 31.6648 34.292 32.7566 33.4425C33.8484 32.5929 34.6257 31.4035 34.9656 30.0625H38.3125C38.7269 30.0625 39.1243 29.8979 39.4173 29.6049C39.7104 29.3118 39.875 28.9144 39.875 28.5V17.5625C39.875 17.3508 39.832 17.1414 39.7484 16.9469ZM7.06247 31.625C6.44441 31.625 5.84022 31.4417 5.32632 31.0983C4.81241 30.755 4.41187 30.2669 4.17535 29.6959C3.93883 29.1249 3.87694 28.4965 3.99752 27.8903C4.1181 27.2842 4.41573 26.7273 4.85276 26.2903C5.2898 25.8533 5.84663 25.5556 6.45282 25.435C7.05901 25.3145 7.68734 25.3764 8.25836 25.6129C8.82938 25.8494 9.31744 26.2499 9.66082 26.7638C10.0042 27.2777 10.1875 27.8819 10.1875 28.5C10.1866 29.3285 9.85714 30.1229 9.27127 30.7088C8.6854 31.2947 7.89102 31.6242 7.06247 31.625ZM28.9375 8.1875H32.5937L35.9437 16H28.9375V8.1875ZM28.9375 31.625C28.3194 31.625 27.7152 31.4417 27.2013 31.0983C26.6874 30.755 26.2869 30.2669 26.0504 29.6959C25.8138 29.1249 25.7519 28.4965 25.8725 27.8903C25.9931 27.2842 26.2907 26.7273 26.7278 26.2903C27.1648 25.8533 27.7216 25.5556 28.3278 25.435C28.934 25.3145 29.5623 25.3764 30.1334 25.6129C30.7044 25.8494 31.1924 26.2499 31.5358 26.7638C31.8792 27.2777 32.0625 27.8819 32.0625 28.5C32.0616 29.3285 31.7321 30.1229 31.1463 30.7088C30.5604 31.2947 29.766 31.6242 28.9375 31.625ZM36.75 26.9375H34.9656C34.6214 25.5991 33.8428 24.4128 32.7519 23.5645C31.661 22.7162 30.3194 22.2538 28.9375 22.25V19.125H36.75V26.9375Z" fill="#0EBFDD"/>
</svg>
