<svg width="28" height="48" viewBox="0 0 28 48" fill="none" xmlns="http://www.w3.org/2000/svg">
<path d="M21.0624 25.6325C21.3574 24.9875 22.1749 24.39 22.8799 24.31C23.5849 24.23 24.2274 23.585 24.3074 22.88C24.3924 22.18 24.9874 21.36 25.6299 21.0625C25.9536 20.8978 26.217 20.6351 26.3826 20.3119C26.5483 19.9887 26.6077 19.6215 26.5524 19.2625C26.4074 18.5675 26.7224 17.605 27.2424 17.1275C27.5003 16.8702 27.6699 16.5378 27.727 16.1779C27.784 15.8181 27.7255 15.4495 27.5599 15.125C27.3885 14.7761 27.2993 14.3925 27.2993 14.0038C27.2993 13.615 27.3885 13.2314 27.5599 12.8825C27.7259 12.5582 27.7846 12.1894 27.7276 11.8295C27.6705 11.4696 27.5006 11.1371 27.2424 10.88C26.7224 10.3975 26.4099 9.43754 26.5524 8.74504C26.6084 8.38535 26.5494 8.01715 26.3837 7.69301C26.2181 7.36886 25.9542 7.10533 25.6299 6.94004C25.2864 6.75678 24.9889 6.49801 24.7599 6.18321C24.5308 5.8684 24.3761 5.50575 24.3074 5.12254C24.2504 4.76421 24.0817 4.43303 23.8253 4.17624C23.569 3.91946 23.2381 3.75017 22.8799 3.69254C22.4965 3.62517 22.1336 3.47126 21.8186 3.24253C21.5037 3.01379 21.2451 2.71625 21.0624 2.37254C20.8975 2.0483 20.6337 1.78491 20.3092 1.62043C19.9848 1.45596 19.6164 1.39891 19.2574 1.45754C18.8721 1.51154 18.4796 1.47702 18.1096 1.35659C17.7397 1.23616 17.4021 1.033 17.1224 0.762538C16.6399 0.237538 15.7399 0.0975377 15.1224 0.445038C14.5049 0.792538 13.4924 0.792538 12.8774 0.445038C12.5539 0.276832 12.1851 0.216429 11.8249 0.272648C11.4646 0.328867 11.1318 0.498764 10.8749 0.757538C10.5954 1.02831 10.2578 1.23168 9.88783 1.35213C9.51782 1.47257 9.12519 1.50692 8.73989 1.45254C8.38134 1.39485 8.01373 1.45265 7.69018 1.61757C7.36662 1.78249 7.10388 2.046 6.9399 2.37004C6.6424 3.01004 5.8249 3.60754 5.1199 3.68754C4.76101 3.7452 4.42951 3.91475 4.17271 4.172C3.9159 4.42925 3.74693 4.76105 3.6899 5.12004C3.62208 5.50325 3.4677 5.86593 3.23852 6.18046C3.00934 6.49499 2.7114 6.75307 2.3674 6.93504C2.04419 7.10117 1.78172 7.36513 1.6174 7.68927C1.45309 8.0134 1.39534 8.38114 1.4524 8.74004C1.5899 9.43254 1.2774 10.395 0.757396 10.875C0.237396 11.355 0.0923966 12.255 0.439897 12.8775C0.787397 13.4925 0.787397 14.505 0.439897 15.12C0.274054 15.4449 0.215446 15.8139 0.272492 16.1742C0.329538 16.5344 0.499303 16.8673 0.757396 17.125C1.2799 17.6 1.5899 18.5625 1.4524 19.26C1.39529 19.6182 1.45306 19.9853 1.61744 20.3087C1.78181 20.6321 2.04434 20.8951 2.3674 21.06C3.0124 21.3575 3.6049 22.1775 3.6874 22.8775C3.7724 23.5825 4.4124 24.2275 5.1174 24.3075C5.8224 24.3875 6.6399 24.9875 6.9374 25.63C7.10266 25.9528 7.36572 26.2151 7.689 26.3795C8.01227 26.5438 8.37921 26.6017 8.7374 26.545C9.43239 26.4075 10.3949 26.7175 10.8724 27.24C11.1299 27.4976 11.4624 27.667 11.8221 27.724C12.1818 27.7811 12.5503 27.7228 12.8749 27.5575C13.4899 27.21 14.5024 27.21 15.1199 27.5575C15.7374 27.905 16.6374 27.76 17.1199 27.24C17.6024 26.715 18.5599 26.4075 19.2549 26.545C19.6139 26.6029 19.982 26.5458 20.3066 26.3819C20.6312 26.218 20.8957 25.9557 21.0624 25.6325ZM13.9999 22.4975C11.7456 22.4975 9.58355 21.602 7.98949 20.0079C6.39543 18.4139 5.4999 16.2519 5.4999 13.9975C5.4999 11.7432 6.39543 9.58119 7.98949 7.98713C9.58355 6.39307 11.7456 5.49754 13.9999 5.49754C16.2542 5.49754 18.4162 6.39307 20.0103 7.98713C21.6044 9.58119 22.4999 11.7432 22.4999 13.9975C22.4999 16.2519 21.6044 18.4139 20.0103 20.0079C18.4162 21.602 16.2542 22.4975 13.9999 22.4975ZM3.9374 27.5225L0.829896 45.145L8.6499 43.985L15.6024 47.75L18.6974 30.1975C16.1984 30.9282 13.5635 31.0669 11.0016 30.6026C8.43965 30.1383 6.02105 29.0838 3.9374 27.5225ZM23.9024 27.6425C23.1217 28.21 22.2936 28.7093 21.4274 29.135L19.5574 39.725L27.9799 35.155L23.9024 27.6425Z" fill="#1FB890"/>
</svg>
