<svg width="300" height="300" viewBox="0 0 300 300" fill="none" xmlns="http://www.w3.org/2000/svg">
<rect opacity="0.6" width="300" height="300" rx="12" fill="black"/>
<path d="M150 129.971C138.916 129.971 129.971 138.916 129.971 150C129.971 161.084 138.916 170.029 150 170.029C161.084 170.029 170.029 161.084 170.029 150C170.029 138.916 161.084 129.971 150 129.971ZM150 163.018C142.832 163.018 136.982 157.168 136.982 150C136.982 142.832 142.832 136.982 150 136.982C157.168 136.982 163.018 142.832 163.018 150C163.018 157.168 157.168 163.018 150 163.018ZM170.85 124.482C168.262 124.482 166.172 126.572 166.172 129.16C166.172 131.748 168.262 133.838 170.85 133.838C173.438 133.838 175.527 131.758 175.527 129.16C175.528 128.546 175.408 127.937 175.173 127.369C174.938 126.801 174.594 126.285 174.159 125.851C173.724 125.416 173.209 125.072 172.641 124.837C172.073 124.602 171.464 124.482 170.85 124.482ZM189.043 150C189.043 144.609 189.092 139.268 188.789 133.887C188.486 127.637 187.061 122.09 182.49 117.52C177.91 112.939 172.373 111.523 166.123 111.221C160.732 110.918 155.391 110.967 150.01 110.967C144.619 110.967 139.277 110.918 133.896 111.221C127.646 111.523 122.1 112.949 117.529 117.52C112.949 122.1 111.533 127.637 111.23 133.887C110.928 139.277 110.977 144.619 110.977 150C110.977 155.381 110.928 160.732 111.23 166.113C111.533 172.363 112.959 177.91 117.529 182.48C122.109 187.061 127.646 188.477 133.896 188.779C139.287 189.082 144.629 189.033 150.01 189.033C155.4 189.033 160.742 189.082 166.123 188.779C172.373 188.477 177.92 187.051 182.49 182.48C187.07 177.9 188.486 172.363 188.789 166.113C189.102 160.732 189.043 155.391 189.043 150ZM180.449 173.027C179.736 174.805 178.877 176.133 177.5 177.5C176.123 178.877 174.805 179.736 173.027 180.449C167.891 182.49 155.693 182.031 150 182.031C144.307 182.031 132.1 182.49 126.963 180.459C125.186 179.746 123.857 178.887 122.49 177.51C121.113 176.133 120.254 174.814 119.541 173.037C117.51 167.891 117.969 155.693 117.969 150C117.969 144.307 117.51 132.1 119.541 126.963C120.254 125.186 121.113 123.857 122.49 122.49C123.867 121.123 125.186 120.254 126.963 119.541C132.1 117.51 144.307 117.969 150 117.969C155.693 117.969 167.9 117.51 173.037 119.541C174.814 120.254 176.143 121.113 177.51 122.49C178.887 123.867 179.746 125.186 180.459 126.963C182.49 132.1 182.031 144.307 182.031 150C182.031 155.693 182.49 167.891 180.449 173.027Z" fill="white"/>
</svg>
