<svg width="130" height="32" viewBox="0 0 130 32" fill="none" xmlns="http://www.w3.org/2000/svg">
<path d="M12.28 3C14.7067 3 16.8133 3.4 18.6 4.2C20.4133 5 21.8 6.14666 22.76 7.64C23.72 9.13333 24.2 10.9067 24.2 12.96C24.2 14.9867 23.72 16.76 22.76 18.28C21.8 19.7733 20.4133 20.92 18.6 21.72C16.8133 22.52 14.7067 22.92 12.28 22.92H5.96V31H0.76V3H12.28ZM12.04 18.52C14.3067 18.52 16.0267 18.04 17.2 17.08C18.3733 16.12 18.96 14.7467 18.96 12.96C18.96 11.1733 18.3733 9.8 17.2 8.84C16.0267 7.88 14.3067 7.4 12.04 7.4H5.96V18.52H12.04ZM48.9147 20.44C48.9147 20.7867 48.888 21.28 48.8347 21.92H32.0747C32.368 23.4933 33.128 24.7467 34.3547 25.68C35.608 26.5867 37.1547 27.04 38.9947 27.04C41.3414 27.04 43.2747 26.2667 44.7947 24.72L47.4747 27.8C46.5147 28.9467 45.3014 29.8133 43.8347 30.4C42.368 30.9867 40.7147 31.28 38.8747 31.28C36.528 31.28 34.4614 30.8133 32.6747 29.88C30.888 28.9467 29.5014 27.6533 28.5147 26C27.5547 24.32 27.0747 22.4267 27.0747 20.32C27.0747 18.24 27.5414 16.3733 28.4747 14.72C29.4347 13.04 30.7547 11.7333 32.4347 10.8C34.1147 9.86667 36.008 9.4 38.1147 9.4C40.1947 9.4 42.048 9.86667 43.6747 10.8C45.328 11.7067 46.608 13 47.5147 14.68C48.448 16.3333 48.9147 18.2533 48.9147 20.44ZM38.1147 13.4C36.5147 13.4 35.1547 13.88 34.0347 14.84C32.9414 15.7733 32.2747 17.0267 32.0347 18.6H44.1547C43.9414 17.0533 43.288 15.8 42.1947 14.84C41.1014 13.88 39.7414 13.4 38.1147 13.4ZM65.8375 9.4C68.5308 9.4 70.6908 10.1867 72.3175 11.76C73.9442 13.3333 74.7575 15.6667 74.7575 18.76V31H69.7575V19.4C69.7575 17.5333 69.3175 16.1333 68.4375 15.2C67.5575 14.24 66.3042 13.76 64.6775 13.76C62.8375 13.76 61.3842 14.32 60.3175 15.44C59.2508 16.5333 58.7175 18.12 58.7175 20.2V31H53.7175V9.64H58.4775V12.4C59.3042 11.4133 60.3442 10.6667 61.5975 10.16C62.8508 9.65333 64.2642 9.4 65.8375 9.4ZM81.1003 9.64H86.1003V31H81.1003V9.64ZM83.6203 6.12C82.7136 6.12 81.9536 5.84 81.3403 5.28C80.727 4.69333 80.4203 3.97333 80.4203 3.12C80.4203 2.26667 80.727 1.56 81.3403 0.999998C81.9536 0.413332 82.7136 0.119999 83.6203 0.119999C84.527 0.119999 85.287 0.399999 85.9003 0.959998C86.5136 1.49333 86.8203 2.17333 86.8203 3C86.8203 3.88 86.5136 4.62666 85.9003 5.24C85.3136 5.82666 84.5536 6.12 83.6203 6.12ZM105.503 29.84C104.916 30.32 104.196 30.68 103.343 30.92C102.516 31.16 101.636 31.28 100.703 31.28C98.3561 31.28 96.5428 30.6667 95.2628 29.44C93.9828 28.2133 93.3428 26.4267 93.3428 24.08V13.8H89.8228V9.8H93.3428V4.92H98.3428V9.8H104.063V13.8H98.3428V23.96C98.3428 25 98.5961 25.8 99.1028 26.36C99.6095 26.8933 100.343 27.16 101.303 27.16C102.423 27.16 103.356 26.8667 104.103 26.28L105.503 29.84ZM118.513 31.28C116.353 31.28 114.406 30.8133 112.673 29.88C110.939 28.9467 109.579 27.6533 108.593 26C107.633 24.32 107.153 22.4267 107.153 20.32C107.153 18.2133 107.633 16.3333 108.593 14.68C109.579 13.0267 110.939 11.7333 112.673 10.8C114.406 9.86667 116.353 9.4 118.513 9.4C120.699 9.4 122.659 9.86667 124.393 10.8C126.126 11.7333 127.473 13.0267 128.433 14.68C129.419 16.3333 129.913 18.2133 129.913 20.32C129.913 22.4267 129.419 24.32 128.433 26C127.473 27.6533 126.126 28.9467 124.393 29.88C122.659 30.8133 120.699 31.28 118.513 31.28ZM118.513 27C120.353 27 121.873 26.3867 123.073 25.16C124.273 23.9333 124.873 22.32 124.873 20.32C124.873 18.32 124.273 16.7067 123.073 15.48C121.873 14.2533 120.353 13.64 118.513 13.64C116.673 13.64 115.153 14.2533 113.953 15.48C112.779 16.7067 112.193 18.32 112.193 20.32C112.193 22.32 112.779 23.9333 113.953 25.16C115.153 26.3867 116.673 27 118.513 27Z" fill="#122025"/>
</svg>
