<svg width="30" height="31" viewBox="0 0 30 31" fill="none" xmlns="http://www.w3.org/2000/svg">
<path fill-rule="evenodd" clip-rule="evenodd" d="M15 0.833374C6.90001 0.833374 0.333344 7.40004 0.333344 15.5C0.333344 23.6 6.90001 30.1667 15 30.1667C23.1 30.1667 29.6667 23.6 29.6667 15.5C29.6667 7.40004 23.1 0.833374 15 0.833374ZM12.0573 11.1094C11.8145 10.8579 11.6801 10.5211 11.6831 10.1715C11.6861 9.82191 11.8264 9.48749 12.0736 9.24028C12.3208 8.99307 12.6552 8.85285 13.0048 8.84981C13.3544 8.84677 13.6912 8.98116 13.9427 9.22404L19.276 14.5574C19.526 14.8074 19.6664 15.1465 19.6664 15.5C19.6664 15.8536 19.526 16.1927 19.276 16.4427L13.9427 21.776C13.6912 22.0189 13.3544 22.1533 13.0048 22.1503C12.6552 22.1472 12.3208 22.007 12.0736 21.7598C11.8264 21.5126 11.6861 21.1782 11.6831 20.8286C11.6801 20.479 11.8145 20.1422 12.0573 19.8907L16.448 15.5L12.0573 11.1094Z" fill="#F2C229"/>
</svg>
